<svg height="480pt" viewBox="-8 0 480 480" width="480pt" xmlns="http://www.w3.org/2000/svg"><path d="m256 216h208v48h-208zm0 0" fill="#1a6fb0"/><path d="m256 136h152v48h-152zm0 0" fill="#ffcd00"/><path d="m256 56h88v48h-88zm0 0" fill="#ff9478"/><path d="m256 296h136v48h-136zm0 0" fill="#00b6bd"/><path d="m256 376h72v48h-72zm0 0" fill="#ab2300"/><path d="m0 216h208v48h-208zm0 0" fill="#003f8a"/><path d="m56 136h152v48h-152zm0 0" fill="#007579"/><path d="m120 56h88v48h-88zm0 0" fill="#ab2300"/><path d="m72 296h136v48h-136zm0 0" fill="#ebbf00"/><path d="m136 376h72v48h-72zm0 0" fill="#ff5023"/><path d="m224 0h16v480h-16zm0 0" fill="#003f8a"/></svg>