<svg version="1.2" baseProfile="tiny-ps" xmlns="http://www.w3.org/2000/svg" viewBox="0 0 467 466" width="467" height="466">
	<title>project-management-svg-svg</title>
	<style>
		tspan { white-space:pre }
		.shp0 { fill: #ebebeb } 
		.shp1 { fill: #b364df } 
		.shp2 { fill: #ffd279 } 
		.shp3 { fill: #e9366d } 
		.shp4 { fill: #9e9e9e } 
	</style>
	<path id="Layer" class="shp0" d="M194.11 441.31C194.11 454.57 204.85 465.31 218.11 465.31L250.11 465.31C263.36 465.31 274.11 454.57 274.11 441.31L274.11 393.31L194.11 393.31L194.11 441.31Z" />
	<path id="Layer" class="shp1" d="M156.41 305.57C149.41 301.06 142.81 295.95 136.7 290.3C131.47 310.39 111.73 323.12 91.29 319.61C70.83 316.09 56.48 297.5 58.26 276.82C60.04 256.15 77.35 240.28 98.11 240.31C99.33 240.31 100.5 240.57 101.67 240.67C94.09 222.85 90.18 203.68 90.18 184.31L80 184.31L74.47 210.61C73.92 213.23 72.1 215.4 69.61 216.39C67.13 217.39 64.31 217.07 62.11 215.55L40 200.31L16 224.31L31.2 246.41C32.72 248.62 33.04 251.44 32.04 253.92C31.05 256.41 28.88 258.23 26.26 258.78L0 264.31L0 296.31L26.29 301.84C28.91 302.39 31.08 304.21 32.07 306.7C33.07 309.18 32.75 312 31.23 314.21L16 336.31L40 360.31L62.11 345.11C64.31 343.59 67.13 343.27 69.62 344.27C72.11 345.26 73.93 347.43 74.48 350.05L80 376.31L112 376.31L117.52 350.02C118.07 347.39 119.89 345.22 122.38 344.23C124.87 343.23 127.69 343.55 129.89 345.07L152 360.31L177.11 335.2C174.48 322.94 167.02 312.25 156.41 305.57Z" />
	<path id="Layer" class="shp2" d="M377.11 185.31C377.1 116.27 328.09 56.95 260.29 43.91C192.48 30.88 124.97 67.8 99.37 131.93C73.77 196.05 97.28 269.32 155.41 306.57C168.73 314.82 176.91 329.31 177.11 344.98L177.11 377.31C177.11 390.57 187.85 401.31 201.11 401.31L265.11 401.31C278.36 401.31 289.11 390.57 289.11 377.31L289.11 345.65C289.31 329.61 297.66 314.77 311.27 306.27C352.34 279.75 377.13 234.2 377.11 185.31L377.11 185.31Z" />
	<path id="Layer" fill-rule="evenodd" class="shp3" d="M427.65 100.68C422.48 104.56 420.15 111.18 421.76 117.45C423.37 123.71 428.59 128.39 434.99 129.31L466.11 133.76L459.31 181.28L428.2 176.83C421.79 175.91 415.46 178.95 412.17 184.52C408.87 190.09 409.25 197.09 413.14 202.27L432.01 227.41L393.61 256.21L374.74 231.07C370.86 225.89 364.24 223.56 357.97 225.17C351.7 226.78 347.02 232 346.11 238.41L341.63 269.53L294.11 262.73L298.59 231.63C299.5 225.22 296.46 218.89 290.9 215.6C285.33 212.3 278.32 212.68 273.14 216.57L248 235.42L219.2 197.02L244.34 178.16C249.52 174.28 251.85 167.66 250.25 161.39C248.64 155.12 243.41 150.43 237.01 149.52L205.89 145.08L212.68 97.56L243.79 102C250.2 102.91 256.52 99.88 259.82 94.31C263.11 88.75 262.73 81.75 258.86 76.57L240 51.41L278.4 22.61L297.26 47.77C301.14 52.95 307.76 55.27 314.03 53.66C320.3 52.06 324.98 46.83 325.89 40.42L330.34 9.31L377.86 16.1L373.41 47.21C372.5 53.62 375.54 59.94 381.1 63.24C386.67 66.54 393.67 66.16 398.85 62.28L424 43.41L452.8 81.82L427.65 100.68ZM392 139.41C392 108.49 366.93 83.41 336 83.41C305.07 83.41 280 108.49 280 139.41C280 170.34 305.07 195.41 336 195.41C366.93 195.41 392 170.34 392 139.41Z" />
	<path id="Layer" class="shp4" d="M194.11 417.31L274.11 417.31L274.11 433.31L194.11 433.31L194.11 417.31Z" />
	<g id="Layer">
	</g>
</svg>