<svg version="1.2" baseProfile="tiny-ps" xmlns="http://www.w3.org/2000/svg" viewBox="0 0 513 513" width="513" height="513">
	<title>clipboard-svg</title>
	<style>
		tspan { white-space:pre }
		.shp0 { fill: #ae8dc4 } 
		.shp1 { fill: #ffffff } 
		.shp2 { fill: #415a6b } 
		.shp3 { fill: #ced6e0 } 
		.shp4 { fill: #f3705a } 
		.shp5 { fill: #ffd163 } 
	</style>
	<path id="Layer" class="shp0" d="M393.6 75.42L393.6 485.02C393.6 499.95 381.87 511.68 366.93 511.68L26.67 511.68C11.73 512.75 0 501.02 0 486.08L0 75.42C0 60.48 11.73 48.75 26.67 48.75L366.93 48.75C381.87 48.75 393.6 61.55 393.6 75.42Z" />
	<path id="Layer" class="shp1" d="M45.87 91.42L347.73 91.42L347.73 466.88L45.87 466.88L45.87 91.42Z" />
	<path id="Layer" fill-rule="evenodd" class="shp2" d="M112 110.62L112 51.95C112 43.42 118.4 37.02 126.93 37.02L161.07 37.02C161.07 16.75 177.07 0.75 196.27 0.75C216.53 0.75 232.53 17.82 232.53 37.02L266.67 37.02C275.2 37.02 281.6 43.42 281.6 51.95L281.6 110.62L112 110.62ZM184.53 37.02C184.53 44.48 190.93 49.82 197.33 49.82C204.8 49.82 210.13 43.42 210.13 37.02C210.13 29.55 203.73 24.22 197.33 24.22C189.87 24.22 184.53 29.55 184.53 37.02Z" />
	<path id="Layer" fill-rule="evenodd" class="shp3" d="M83.2 220.48L83.2 161.82L141.87 161.82L141.87 220.48L83.2 220.48ZM89.6 214.08L136.53 214.08L136.53 167.15L89.6 167.15L89.6 214.08Z" />
	<path id="Layer" class="shp4" d="M100.27 211.95C98.13 211.95 96 210.88 93.87 208.75L70.4 185.28C67.2 182.08 67.2 175.68 70.4 172.48C73.6 169.28 80 169.28 83.2 172.48L99.2 188.48L133.33 154.35C136.53 151.15 142.93 151.15 146.13 154.35C149.33 157.55 149.33 163.95 146.13 167.15L106.67 209.82C105.6 210.88 102.4 211.95 100.27 211.95Z" />
	<path id="Layer" fill-rule="evenodd" class="shp3" d="M83.2 328.22L83.2 269.55L141.87 269.55L141.87 328.22L83.2 328.22ZM89.6 322.88L136.53 322.88L136.53 275.95L89.6 275.95L89.6 322.88Z" />
	<path id="Layer" class="shp4" d="M100.27 319.68C98.13 319.68 96 318.62 93.87 316.48L70.4 293.02C67.2 289.82 67.2 283.42 70.4 280.22C74.67 278.08 80 278.08 84.27 281.28L100.27 297.28L134.4 263.15C137.6 259.95 144 259.95 147.2 263.15C150.4 266.35 150.4 272.75 147.2 275.95L106.67 317.55C105.6 319.68 102.4 319.68 100.27 319.68Z" />
	<path id="Layer" fill-rule="evenodd" class="shp3" d="M83.2 437.02L83.2 378.35L141.87 378.35L141.87 437.02L83.2 437.02ZM89.6 430.62L136.53 430.62L136.53 383.68L89.6 383.68L89.6 430.62Z" />
	<path id="Layer" class="shp4" d="M100.27 428.48C98.13 428.48 96 427.42 93.87 425.28L70.4 401.82C67.2 398.62 67.2 392.22 70.4 389.02C73.6 385.82 80 385.82 83.2 389.02L100.27 406.08L134.4 371.95C137.6 368.75 144 368.75 147.2 371.95C150.4 375.15 150.4 381.55 147.2 384.75L106.67 425.28C105.6 427.42 102.4 428.48 100.27 428.48Z" />
	<path id="Layer" class="shp2" d="M435.32 64.07L470.32 16.99L503.7 41.81L468.7 88.89L435.32 64.07Z" />
	<path id="Layer" class="shp5" d="M435.2 61.55C457.6 54.08 488.53 66.88 488.53 66.88L312.53 303.68C284.8 341.01 250.67 374.08 211.2 400.75L211.2 400.75L211.2 400.75C225.07 355.95 247.47 314.35 275.2 275.95L435.2 61.55Z" />
	<path id="Layer" class="shp2" d="M341 263.76L316.19 297.14L279.38 269.78L304.2 236.39L341 263.76Z" />
	<path id="Layer" class="shp5" d="M477.87 22.08L498.13 37.02L509.87 21.02C514.13 15.68 513.07 8.22 507.73 3.95L507.73 3.95C501.33 -1.38 493.87 0.75 489.6 6.08L477.87 22.08Z" />
	<path id="Layer" class="shp2" d="M472.53 35.95L466.13 44.48L450.13 32.75L401.07 94.62C405.33 99.95 402.13 104.22 397.87 110.62C393.6 117.02 387.2 121.28 380.8 115.95L380.8 115.95L380.8 115.95C378.67 113.82 377.6 110.62 379.73 108.48L443.73 22.08C445.87 19.95 449.07 18.88 451.2 21.01L472.53 35.95Z" />
	<g id="Layer">
	</g>
	<g id="Layer">
	</g>
	<g id="Layer">
	</g>
	<g id="Layer">
	</g>
	<g id="Layer">
	</g>
	<g id="Layer">
	</g>
	<g id="Layer">
	</g>
	<g id="Layer">
	</g>
	<g id="Layer">
	</g>
	<g id="Layer">
	</g>
	<g id="Layer">
	</g>
	<g id="Layer">
	</g>
	<g id="Layer">
	</g>
	<g id="Layer">
	</g>
	<g id="Layer">
	</g>
</svg>